<?xml version="1.0" encoding="UTF-8" standalone="no"?>
<!-- Created with Inkscape (http://www.inkscape.org/) -->

<svg
   xmlns:dc="http://purl.org/dc/elements/1.1/"
   xmlns:cc="http://creativecommons.org/ns#"
   xmlns:rdf="http://www.w3.org/1999/02/22-rdf-syntax-ns#"
   xmlns:svg="http://www.w3.org/2000/svg"
   xmlns="http://www.w3.org/2000/svg"
   xmlns:sodipodi="http://sodipodi.sourceforge.net/DTD/sodipodi-0.dtd"
   xmlns:inkscape="http://www.inkscape.org/namespaces/inkscape"
   width="123.39505mm"
   height="120.3854mm"
   viewBox="0 0 123.39505 120.3854"
   version="1.1"
   id="svg8"
   inkscape:version="0.92.4 (5da689c313, 2019-01-14)"
   sodipodi:docname="drawing.svg"
   shape-rendering="crispEdges">
  <defs
     id="defs2" />
  <sodipodi:namedview
     id="base"
     pagecolor="#ffffff"
     bordercolor="#666666"
     borderopacity="1.0"
     inkscape:pageopacity="0.0"
     inkscape:pageshadow="2"
     inkscape:zoom="0.2"
     inkscape:cx="603.49319"
     inkscape:cy="173.99991"
     inkscape:document-units="px"
     inkscape:current-layer="layer1"
     showgrid="false"
     inkscape:window-width="1366"
     inkscape:window-height="743"
     inkscape:window-x="0"
     inkscape:window-y="0"
     inkscape:window-maximized="1"
     fit-margin-top="0"
     fit-margin-left="0"
     fit-margin-right="0"
     fit-margin-bottom="0"
     inkscape:pagecheckerboard="true"
     showborder="false"
     units="px" />
  <metadata
     id="metadata5">
    <rdf:RDF>
      <cc:Work
         rdf:about="">
        <dc:format>image/svg+xml</dc:format>
        <dc:type
           rdf:resource="http://purl.org/dc/dcmitype/StillImage" />
        <dc:title></dc:title>
      </cc:Work>
    </rdf:RDF>
  </metadata>
  <g
     inkscape:label="Layer 1"
     inkscape:groupmode="layer"
     id="layer1"
     transform="translate(-46.383053,-86.511933)">
    <path
       style="opacity:1;fill:#000000;fill-opacity:1;stroke:none;stroke-width:2.85714293;stroke-miterlimit:4;stroke-dasharray:none;stroke-opacity:1"
       d=""
       id="path4604"
       inkscape:connector-curvature="0"
       transform="scale(0.26458333)" />
    <path
       style="opacity:1;fill:#000000;fill-opacity:1;stroke:none;stroke-width:1.13636363;stroke-miterlimit:4;stroke-dasharray:none;stroke-opacity:1"
       d=""
       id="path4634"
       inkscape:connector-curvature="0"
       transform="scale(0.26458333)" />
    <path
       style="opacity:1;fill:#000000;fill-opacity:1;stroke:none;stroke-width:1.13636363;stroke-miterlimit:4;stroke-dasharray:none;stroke-opacity:1"
       d=""
       id="path4640"
       inkscape:connector-curvature="0"
       transform="scale(0.26458333)" />
    <path
       style="opacity:1;fill:#000000;fill-opacity:1;stroke:none;stroke-width:1.13636363;stroke-miterlimit:4;stroke-dasharray:none;stroke-opacity:1"
       d=""
       id="path4648"
       inkscape:connector-curvature="0"
       transform="scale(0.26458333)" />
    <path
       style="opacity:1;fill:#000000;fill-opacity:1;stroke:none;stroke-width:1.13636363;stroke-miterlimit:4;stroke-dasharray:none;stroke-opacity:1"
       d=""
       id="path4652"
       inkscape:connector-curvature="0"
       transform="scale(0.26458333)" />
    <path
       style="opacity:1;fill:#000000;fill-opacity:1;stroke:none;stroke-width:1.13636363;stroke-miterlimit:4;stroke-dasharray:none;stroke-opacity:1"
       d=""
       id="path4666"
       inkscape:connector-curvature="0"
       transform="scale(0.26458333)" />
    <path
       style="opacity:1;fill:#7dac58;fill-opacity:1;stroke:none;stroke-width:0.37620437;stroke-miterlimit:4;stroke-dasharray:none;stroke-opacity:1"
       d="M 46.383053,146.70463 V 86.511933 h 61.697507 61.69754 v 60.192697 60.1927 H 108.08056 46.383053 Z m 66.964387,52.67369 c 5.17196,-0.76896 8.73134,-1.69884 12.02207,-3.14076 12.77193,-5.59631 21.93045,-14.241 27.47957,-25.93784 3.33123,-7.02182 4.72367,-12.80214 5.12891,-21.29158 l 0.25687,-5.38086 -25.42218,0.12791 c -13.98218,0.0703 -25.52817,0.23401 -25.65776,0.36368 -0.12959,0.12967 0.27067,1.6969 0.88944,3.48273 1.09985,3.17415 2.34632,8.42872 2.84071,11.97494 0.22806,1.63582 0.34082,1.78892 1.44889,1.96706 0.66085,0.10624 6.15959,0.2391 12.21939,0.29524 9.30745,0.0862 11.07316,0.18967 11.37443,0.66637 0.56949,0.90121 0.42665,1.55996 -0.38428,1.77202 -0.47652,0.12462 -0.75242,0.51315 -0.75242,1.05961 0,1.53155 -6.29666,8.4545 -7.68967,8.4545 -0.32274,0 -0.58681,0.22211 -0.58681,0.49356 0,0.91008 -4.47484,3.64469 -5.96406,3.64469 -0.39991,0 -0.82104,0.24476 -0.93585,0.5439 -0.27561,0.71825 -3.311,1.6042 -8.02093,2.34109 l -3.8228,0.59811 -0.2478,2.67885 c -0.57123,6.17559 -2.08769,13.02447 -2.88379,13.02447 -0.51521,0 -0.0513,1.9558 0.55544,2.34176 0.57105,0.36325 5.49796,0.31525 8.15263,-0.0795 z m -12.90161,-1.91006 c 1.19566,-2.50302 0.90167,-18.3239 -0.462247,-24.87441 -0.92954,-4.4644 -3.59362,-12.78198 -4.65294,-14.52713 -3.3244,-5.47661 -4.88013,-7.53461 -8.18969,-10.83383 -2.92901,-2.91984 -3.55412,-3.72129 -2.99444,-3.83916 0.7226,-0.15218 1.4612,0.58847 1.12667,1.12976 -0.10201,0.16507 0.044,0.30012 0.32444,0.30012 1.38044,0 9.69201,8.40795 9.69201,9.8044 0,0.35286 0.29885,0.71973 0.66416,0.81525 1.81149,0.47371 5.882117,12.418 7.022317,20.60531 0.12965,0.93111 0.40316,1.94686 0.60777,2.25723 0.31529,0.47829 0.50386,0.41558 1.23709,-0.41143 1.96193,-2.21287 2.62467,-17.07945 1.02983,-23.10135 -1.03899,-3.92295 -2.58104,-7.16921 -4.78395,-10.07083 -2.237547,-2.94725 -9.185057,-9.82457 -11.209917,-11.09665 -2.55628,-1.60594 -8.51956,-6.49316 -11.33914,-9.29298 -2.93856,-2.91797 -5.02345,-6.32191 -5.99843,-9.7934 -0.34868,-1.24148 -0.88279,-2.51117 -1.18696,-2.82153 -0.49003,-0.50005 -0.68142,-0.41437 -1.68045,0.7524 -1.56324,1.82569 -3.86193,6.01959 -5.23569,9.55239 -2.02529,5.20835 -2.61926,8.22573 -2.85922,14.52469 -0.56613,14.86114 2.34521,23.292 10.62309,30.76308 1.3702,1.23666 5.36865,3.97277 8.9383,6.11638 8.56563,5.14377 11.71488,7.33119 13.24735,9.20136 1.61607,1.9722 2.78599,4.54067 2.7966,6.13974 0.005,0.73241 0.16312,1.14916 0.38448,1.01236 0.22977,-0.14202 0.3762,0.435 0.3762,1.48261 0,2.2334 -0.60109,2.23192 -2.70677,-0.007 -1.89371,-2.01319 -2.14641,-2.51214 -1.18923,-2.34805 1.08313,0.18568 0.69814,-1.04299 -1.21746,-3.88557 -2.80144,-4.15702 -6.54816,-7.11475 -10.49557,-8.28537 -2.23951,-0.66413 -6.29132,-1.0154 -7.29664,-0.63257 -2.69124,1.02485 -11.75071,1.05464 -12.4093,0.0408 -0.33948,-0.52258 -2.97189,-1.32282 -3.42674,-1.04171 -1.12186,0.69335 0.35876,6.3291 2.69684,10.26507 1.71629,2.88925 6.50943,7.68504 8.88288,8.88775 3.10693,1.57441 6.64035,1.94972 11.3614,1.20679 2.17257,-0.34189 5.05053,-0.87185 6.39548,-1.17771 1.34492,-0.30585 2.86855,-0.46541 3.38583,-0.3546 1.75419,0.37578 3.00965,1.01731 3.00965,1.53792 0,0.28526 0.19957,0.51867 0.44354,0.51867 0.24394,0 0.99798,0.60531 1.67562,1.34514 1.44258,1.57492 2.70185,1.62498 3.413237,0.13571 z m 36.49071,-68.52386 c 1.95542,-0.84522 12.33329,-6.43544 12.99676,-7.00094 1.01989,-0.86927 0.81107,-1.61358 -1.29555,-4.61782 -4.06801,-5.80135 -12.01237,-12.79757 -18.73733,-16.50108 -1.55183,-0.854616 -3.07546,-1.69611 -3.38582,-1.869985 -1.28461,-0.719652 -11.20071,-2.940565 -15.08396,-3.378355 -5.40196,-0.609012 -15.357437,0.707059 -20.772057,2.745976 -4.90632,1.847504 -12.12933,5.926884 -14.68037,8.291124 -1.51342,1.40259 -1.41039,3.93618 0.28181,6.93001 1.8297,3.23703 3.23184,5.18729 5.57475,7.75385 l 2.04804,2.24357 3.54024,-2.67591 c 1.94712,-1.47175 4.38668,-3.09693 5.42124,-3.6115 2.79913,-1.39223 6.79514,-2.52608 8.902637,-2.52608 1.1466,0 1.77413,-0.14474 1.63109,-0.3762 -0.31426,-0.50849 6.52899,-0.49464 9.43007,0.0191 3.07788,0.54503 7.78502,2.12429 9.27239,3.11093 0.68,0.45107 1.72255,1.07139 2.31678,1.3785 2.63342,1.36097 10.39382,8.86499 10.39382,10.05045 0,0.61175 0.78075,0.62426 2.14546,0.0344 z"
       id="path4678"
       inkscape:connector-curvature="0" />
  </g>
</svg>
